<svg width="181" height="180" viewBox="0 0 181 180" fill="none" xmlns="http://www.w3.org/2000/svg">
<line x1="180" y1="80.5" x2="140" y2="80.5" stroke="#81279D"/>
<line x1="140" y1="0.5" x2="40" y2="0.5" stroke="#81279D"/>
<line x1="140.5" x2="140.5" y2="80" stroke="#81279D"/>
<line x1="180.5" y1="80" x2="180.5" y2="180" stroke="#81279D"/>
<line x1="39.5" y1="40" x2="39.5" stroke="#81279D"/>
<line y1="39.5" x2="40" y2="39.5" stroke="#81279D"/>
<line x1="79.5" y1="180" x2="79.5" y2="140" stroke="#81279D"/>
<line x1="100.5" y1="140" x2="100.5" y2="180" stroke="#81279D"/>
<line y1="179.5" x2="80" y2="179.5" stroke="#81279D"/>
<line x1="0.5" y1="40" x2="0.5" y2="180" stroke="#81279D"/>
<line x1="101" y1="179.5" x2="181" y2="179.5" stroke="#81279D"/>
<line x1="80" y1="139.5" x2="100" y2="139.5" stroke="#81279D"/>
<rect x="40" width="100" height="20" fill="#81279D"/>
<rect x="40" y="20" width="20" height="160" fill="#81279D"/>
<rect x="120" y="20" width="20" height="160" fill="#81279D"/>
<rect y="40" width="20" height="140" fill="#81279D"/>
<rect x="160" y="80" width="20" height="100" fill="#81279D"/>
<rect x="80" y="20" width="20" height="120" fill="#81279D"/>
<rect x="60" y="120" width="20" height="60" fill="#81279D"/>
<rect x="60" y="120" width="20" height="60" fill="#81279D"/>
<rect x="60" y="120" width="20" height="60" fill="#81279D"/>
<rect x="100" y="120" width="20" height="60" fill="#81279D"/>
<rect x="100" y="120" width="20" height="60" fill="#81279D"/>
<rect x="100" y="120" width="20" height="60" fill="#81279D"/>
<rect x="20" y="40" width="20" height="20" fill="#81279D"/>
<rect x="60" y="40" width="20" height="20" fill="#81279D"/>
<rect x="100" y="40" width="20" height="20" fill="#81279D"/>
<rect x="20" y="80" width="20" height="20" fill="#81279D"/>
<rect x="60" y="80" width="20" height="20" fill="#81279D"/>
<rect x="100" y="80" width="20" height="20" fill="#81279D"/>
<rect x="140" y="80" width="20" height="20" fill="#81279D"/>
<rect x="20" y="120" width="20" height="20" fill="#81279D"/>
<rect x="20" y="40" width="20" height="20" fill="#81279D"/>
<rect x="20" y="160" width="20" height="20" fill="#81279D"/>
<path d="M140 160H160V180H140V160Z" fill="#81279D"/>
<rect x="140" y="120" width="20" height="20" fill="#81279D"/>
</svg>
